<?xml version="1.0" encoding="iso-8859-1"?>
<!-- Generator: Adobe Illustrator 19.0.0, SVG Export Plug-In . SVG Version: 6.00 Build 0)  -->
<svg height='100px' version="1.1" id="Capa_1" xmlns="http://www.w3.org/2000/svg" xmlns:xlink="http://www.w3.org/1999/xlink" x="0px" y="0px"
	 viewBox="0 0 497.456 497.456" style="enable-background:new 0 0 497.456 497.456;" xml:space="preserve">
<path style="fill:#92E0C0;" d="M8.728,417.456V80.8c0-17.312,14.328-31.344,32-31.344h240l32,368H8.728z"/>
<rect x="104.728" y="81.456" style="fill:#48C397;" width="168" height="136"/>
<path style="fill:#0FA196;" d="M72.728,417.456h-64v-336c0-17.672,14.328-32,32-32h32V417.456z"/>
<path style="fill:#ECECEC;" d="M280.728,449.456h-240c-17.672,0-32-14.328-32-32l0,0c0-17.672,14.328-32,32-32h240V449.456z"/>
<polygon style="fill:#D3A06C;" points="472.728,297.456 456.728,489.456 280.728,489.456 264.728,297.456 "/>
<polygon style="fill:#ECECEC;" points="328.048,153.456 289.424,9.456 216.728,25.456 271.36,249.456 352.728,249.456 "/>
<polygon style="fill:#B6C1CE;" points="265.504,225.456 271.36,249.456 344.728,249.456 344.728,225.456 "/>
<path style="fill:#ECECEC;" d="M328.728,249.456v-176c0-17.672,14.328-32,32-32l0,0c17.672,0,32,14.328,32,32v176H328.728z"/>
<path style="fill:#AFB8C9;" d="M392.728,249.456v-208c0-17.672,14.328-32,32-32l0,0c17.672,0,32,14.328,32,32v208H392.728z"/>
<rect x="360.728" y="153.456" style="fill:#FCD770;" width="32" height="96"/>
<rect x="328.728" y="153.456" style="fill:#FFEAA7;" width="32" height="96"/>
<rect x="248.728" y="249.456" style="fill:#D3A06C;" width="240" height="48"/>
<rect x="328.728" y="121.456" style="fill:#FFC729;" width="64" height="32"/>
<path style="fill:#8C95A4;" d="M472.728,161.456L472.728,161.456c-8.84,0-16-7.16-16-16v-80c0-8.84,7.16-16,16-16l0,0
	c8.84,0,16,7.16,16,16v80C488.728,154.296,481.568,161.456,472.728,161.456z"/>
<g>
	<polygon style="fill:#B27946;" points="470.728,321.456 472.728,297.456 264.728,297.456 266.728,321.456 	"/>
	<polygon style="fill:#B27946;" points="279.392,473.456 280.728,489.456 456.728,489.456 458.064,473.456 	"/>
</g>
<rect x="392.728" y="233.456" style="fill:#8C95A4;" width="64" height="16"/>
<path d="M472.728,169.456c13.232,0,24-10.768,24-24v-80c0-13.232-10.768-24-24-24c-2.816,0-5.488,0.576-8,1.472v-1.472
	c0-22.056-17.944-40-40-40s-40,17.944-40,40v0.208c-6.704-5.08-14.96-8.208-24-8.208c-22.056,0-40,17.944-40,40V95.28L295.176,0
	l-88.16,19.4l5.376,22.056H40.728c-22.056,0-40,17.648-40,39.344v336.656c0,22.056,17.944,40,40,40h229.304l3.336,40h190.72l16-192
	h16.64v-64h-32v-73.472C467.24,168.88,469.912,169.456,472.728,169.456z M464.728,65.456c0-4.416,3.584-8,8-8s8,3.584,8,8v80
	c0,4.416-3.584,8-8,8s-8-3.584-8-8V65.456z M400.728,73.456v-32c0-13.232,10.768-24,24-24s24,10.768,24,24v24v16h-48V73.456z
	 M400.728,97.456h48v48v96h-48V97.456z M336.728,73.456c0-13.232,10.768-24,24-24s24,10.768,24,24v40h-48V73.456z M336.728,129.456
	h48v16h-48V129.456z M336.728,161.456h16v16h16v-16h16v80h-16v-48h-16v48h-16V161.456z M283.672,18.912l36.648,136.616l0.408,1.52
	v84.408h-43.08L226.44,31.512L283.672,18.912z M253.368,209.456h-140.64v-120h111.376L253.368,209.456z M16.728,80.8
	c0-12.872,10.768-23.344,24-23.344h24v272h16v-272h135.568l3.904,16H96.728v152h160.544l3.904,16h-20.448v64h16.64l6,72H80.728v-32
	h-16v32h-24c-9.04,0-17.296,3.128-24,8.208V80.8z M40.728,441.456c-13.232,0-24-10.768-24-24s10.768-24,24-24h223.976l1.336,16
	H64.728v16h202.64l1.336,16H40.728z M273.416,305.456h36l16,16l-46.768,46.768L273.416,305.456z M348.04,393.456l24.688-24.688
	l24.688,24.688l-24.688,24.688L348.04,393.456z M361.416,429.456l-24.688,24.688l-24.688-24.688l24.688-24.688L361.416,429.456z
	 M408.728,404.768l24.688,24.688l-24.688,24.688l-24.688-24.688L408.728,404.768z M384.04,357.456l24.688-24.688l24.688,24.688
	l-24.688,24.688L384.04,357.456z M372.728,346.144l-40.688-40.688h49.376l16,16L372.728,346.144z M336.728,332.768l24.688,24.688
	l-24.688,24.688l-24.688-24.688L336.728,332.768z M280.392,389.104l20.336-20.336l24.688,24.688l-41.224,41.224L280.392,389.104z
	 M309.416,481.456h-21.328l-2.24-26.88l0.536,0.536l14.344-14.344l24.688,24.688L309.416,481.456z M332.04,481.456l40.688-40.688
	l40.688,40.688H332.04z M449.368,481.456H436.04l-16-16l33.448-33.448L449.368,481.456z M455.544,407.328l-10.816,10.816
	l-24.688-24.688l39.992-39.992L455.544,407.328z M480.728,257.456v32h-32v16h15.312l-1.944,23.32l-17.368,17.368l-40.688-40.688
	h28.688v-16h-176v-32H480.728z"/>
<rect x="32.728" y="409.456" width="16" height="16"/>
<g>
</g>
<g>
</g>
<g>
</g>
<g>
</g>
<g>
</g>
<g>
</g>
<g>
</g>
<g>
</g>
<g>
</g>
<g>
</g>
<g>
</g>
<g>
</g>
<g>
</g>
<g>
</g>
<g>
</g>
</svg>
