<?xml version="1.0"?>
<svg xmlns="http://www.w3.org/2000/svg" id="Capa_1" enable-background="new 0 0 512 512" height="512px" viewBox="0 0 512 512" width="300px" class=""><g><g><path d="m377.844 316.309h-243.688c-8.284 0-15-6.716-15-15v-60c0-3.564 1.27-7.014 3.581-9.728 33.339-39.136 81.911-61.581 133.263-61.581s99.924 22.445 133.263 61.581c2.312 2.714 3.581 6.163 3.581 9.728v60c0 8.284-6.716 15-15 15z" fill="#ff5e82" data-original="#FF5E82" style="fill:#F3FAEC" class="" data-old_color="#ff5e82">
<animate attributeName="fill-opacity"
             begin="0s" dur="1.4s"
             values="0.5;1;0.5"
             calcMode="linear"
             repeatCount="indefinite" />
</path>
<path d="m377.844 316.309c8.284 0 15-6.716 15-15v-60c0-3.564-1.27-7.014-3.581-9.728-33.339-39.136-81.911-61.581-133.263-61.581v146.309z" fill="#b7457d" data-original="#B7457D" class="active-path" style="fill:#9AA68E" data-old_color="#b7457d">
<animate attributeName="fill-opacity"
             begin="0.7s" dur="1.4s"
             values="0.5;1;0.5"
             calcMode="linear"
             repeatCount="indefinite" />
</path>
<path d="m256 512c-1.784 0-3.569-.318-5.267-.955l-160-60c-5.854-2.195-9.733-7.792-9.733-14.045v-210c0-4.92 2.412-9.526 6.456-12.329 4.043-2.803 9.204-3.445 13.811-1.716l154.733 58.025 154.733-58.025c4.604-1.729 9.767-1.087 13.811 1.716s6.456 7.409 6.456 12.329v210c0 6.253-3.879 11.85-9.733 14.045l-160 60c-1.698.637-3.483.955-5.267.955z" fill="#a4e9ff" data-original="#A4E9FF" class="" style="fill:#70AD77" data-old_color="#a4e9ff">
<animate attributeName="fill-opacity"
             begin="0s" dur="1.4s"
             values="0.5;1;0.5"
             calcMode="linear"
             repeatCount="indefinite" />
</path>

<g><path d="m421.267 451.045c5.854-2.195 9.733-7.792 9.733-14.045v-210c0-4.92-2.412-9.526-6.456-12.329s-9.206-3.445-13.811-1.716l-154.733 58.025v241.02c1.784 0 3.569-.318 5.267-.955z" fill="#91bbff" data-original="#91BBFF" class="" style="fill:#1C6F26" data-old_color="#91bbff">
<animate attributeName="fill-opacity"
             begin="0.7s" dur="1.4s"
             values="0.5;1;0.5"
             calcMode="linear"
             repeatCount="indefinite" />
</path>
</g><path d="m256 200c-55.141 0-100-44.859-100-100s44.859-100 100-100 100 44.859 100 100-44.859 100-100 100z" fill="#ffd6aa" data-original="#FFD6AA" style="fill:#FFD6AA" class="">
<animate attributeName="fill-opacity"
             begin="0s" dur="1.4s"
             values="0.5;1;0.5"
             calcMode="linear"
             repeatCount="indefinite" />
</path>
<path d="m356 100c0-55.141-44.859-100-100-100v200c55.141 0 100-44.859 100-100z" fill="#fac68f" data-original="#FAC68F" class="" style="fill:#FFD6AA" data-old_color="#fac68f">
<animate attributeName="fill-opacity"
             begin="0.7s" dur="1.4s"
             values="0.5;1;0.5"
             calcMode="linear"
             repeatCount="indefinite" />
</path>
<g><g><path d="m428.5 380h-15c-9.649 0-17.5-7.851-17.5-17.5v-50c0-9.649 7.851-17.5 17.5-17.5h15c23.435 0 42.5 19.065 42.5 42.5s-19.065 42.5-42.5 42.5z" fill="#fac68f" data-original="#FAC68F" class="" style="fill:#FFD6AA" data-old_color="#fac68f">
<animate attributeName="fill-opacity"
             begin="0s" dur="1.4s"
             values="0.5;1;0.5"
             calcMode="linear"
             repeatCount="indefinite" />
</path>
<path d="m98.5 380h-15c-23.435 0-42.5-19.065-42.5-42.5s19.065-42.5 42.5-42.5h15c9.649 0 17.5 7.851 17.5 17.5v50c0 9.649-7.851 17.5-17.5 17.5z" fill="#ffd6aa" data-original="#FFD6AA" style="fill:#FFD6AA" class="">
<animate attributeName="fill-opacity"
             begin="0.7s" dur="1.4s"
             values="0.5;1;0.5"
             calcMode="linear"
             repeatCount="indefinite" />
</path>
</g></g></g></g> </svg>
