<svg id="Capa_1" enable-background="new 0 0 512.002 512.002" height="350" viewBox="-630 0 1700.002 520" width="280" xmlns="http://www.w3.org/2000/svg"><g><path d="m448.362 63.64-63.64-63.64-74.246 74.247 53.034 137.886z" fill="#2FA03C"/><path d="m448.362 63.64-116.672 116.673 106.066 21.213 74.246-74.246z" fill="#1C6F26"/><path d="m34.216 406.504-34.216 105.497 112.284-69.856z" fill="#2C2B2B"/><path d="m.002 512.001 105.497-34.215-14.428-56.854z" fill="#060606"/><path d="m188.374 366.055-127.279-42.426-26.879 82.875 35.641 35.641z" fill="#ffe7b5"/><path d="m69.857 442.145 35.642 35.641 82.874-26.878-21.213-106.066z" fill="#ffd06a"/><path d="m124.734 387.269 63.639 63.639 249.383-249.382-63.64-63.639-166.169 81.316z" fill="#70AD77"/><path d="m41.266 185.758h352.679v90h-352.679z" fill="#BBEEC1" transform="matrix(.707 -.707 .707 .707 -99.435 221.458)"/></g></svg>
